<svg version="1.1"    
    baseProfile="full"
    width="300" height="200"
    xmlns="http://www.w3.org/2000/svg">

    <circle cx="0" cy="0" r="80" fill="green" />
    <circle cx="1" cy="1" r="80" fill="green" />
    <circle cx="2" cy="2" r="80" fill="green" />
    <circle cx="3" cy="3" r="80" fill="green" />
    <circle cx="4" cy="4" r="80" fill="green" />
    <circle cx="5" cy="5" r="80" fill="green" />
    <circle cx="6" cy="6" r="80" fill="green" />
    <circle cx="7" cy="7" r="80" fill="green" />
    <circle cx="8" cy="8" r="80" fill="green" />
    <circle cx="9" cy="9" r="80" fill="green" />
    <circle cx="10" cy="10" r="80" fill="green" />
    <circle cx="11" cy="11" r="80" fill="green" />
    <circle cx="12" cy="12" r="80" fill="green" />
    <circle cx="13" cy="13" r="80" fill="green" />
    <circle cx="14" cy="14" r="80" fill="green" />
    <circle cx="15" cy="15" r="80" fill="green" />
    <circle cx="16" cy="16" r="80" fill="green" />
    <circle cx="17" cy="17" r="80" fill="green" />
    <circle cx="18" cy="18" r="80" fill="green" />
    <circle cx="19" cy="19" r="80" fill="green" />
    <circle cx="20" cy="20" r="80" fill="green" />
    <circle cx="21" cy="21" r="80" fill="green" />
    <circle cx="22" cy="22" r="80" fill="green" />
    <circle cx="23" cy="23" r="80" fill="green" />
    <circle cx="24" cy="24" r="80" fill="green" />
    <circle cx="25" cy="25" r="80" fill="green" />
    <circle cx="26" cy="26" r="80" fill="green" />
    <circle cx="27" cy="27" r="80" fill="green" />
    <circle cx="28" cy="28" r="80" fill="green" />
    <circle cx="29" cy="29" r="80" fill="green" />
    <circle cx="30" cy="30" r="80" fill="green" />
    <circle cx="31" cy="31" r="80" fill="green" />
    <circle cx="32" cy="32" r="80" fill="green" />
    <circle cx="33" cy="33" r="80" fill="green" />
    <circle cx="34" cy="34" r="80" fill="green" />
    <circle cx="35" cy="35" r="80" fill="green" />
    <circle cx="36" cy="36" r="80" fill="green" />
    <circle cx="37" cy="37" r="80" fill="green" />
    <circle cx="38" cy="38" r="80" fill="green" />
    <circle cx="39" cy="39" r="80" fill="green" />
    <circle cx="40" cy="40" r="80" fill="green" />
    <circle cx="41" cy="41" r="80" fill="green" />
    <circle cx="42" cy="42" r="80" fill="green" />
    <circle cx="43" cy="43" r="80" fill="green" />
    <circle cx="44" cy="44" r="80" fill="green" />
    <circle cx="45" cy="45" r="80" fill="green" />
    <circle cx="46" cy="46" r="80" fill="green" />
    <circle cx="47" cy="47" r="80" fill="green" />
    <circle cx="48" cy="48" r="80" fill="green" />
    <circle cx="49" cy="49" r="80" fill="green" />
    <circle cx="50" cy="50" r="80" fill="green" />
    <circle cx="51" cy="51" r="80" fill="green" />
    <circle cx="52" cy="52" r="80" fill="green" />
    <circle cx="53" cy="53" r="80" fill="green" />
    <circle cx="54" cy="54" r="80" fill="green" />
    <circle cx="55" cy="55" r="80" fill="green" />
    <circle cx="56" cy="56" r="80" fill="green" />
    <circle cx="57" cy="57" r="80" fill="green" />
    <circle cx="58" cy="58" r="80" fill="green" />
    <circle cx="59" cy="59" r="80" fill="green" />
    <circle cx="60" cy="60" r="80" fill="green" />
    <circle cx="61" cy="61" r="80" fill="green" />
    <circle cx="62" cy="62" r="80" fill="green" />
    <circle cx="63" cy="63" r="80" fill="green" />
    <circle cx="64" cy="64" r="80" fill="green" />
    <circle cx="65" cy="65" r="80" fill="green" />
    <circle cx="66" cy="66" r="80" fill="green" />
    <circle cx="67" cy="67" r="80" fill="green" />
    <circle cx="68" cy="68" r="80" fill="green" />
    <circle cx="69" cy="69" r="80" fill="green" />
    <circle cx="70" cy="70" r="80" fill="green" />
    <circle cx="71" cy="71" r="80" fill="green" />
    <circle cx="72" cy="72" r="80" fill="green" />
    <circle cx="73" cy="73" r="80" fill="green" />
    <circle cx="74" cy="74" r="80" fill="green" />
    <circle cx="75" cy="75" r="80" fill="green" />
    <circle cx="76" cy="76" r="80" fill="green" />
    <circle cx="77" cy="77" r="80" fill="green" />
    <circle cx="78" cy="78" r="80" fill="green" />
    <circle cx="79" cy="79" r="80" fill="green" />
    <circle cx="80" cy="80" r="80" fill="green" />
    <circle cx="81" cy="81" r="80" fill="green" />
    <circle cx="82" cy="82" r="80" fill="green" />
    <circle cx="83" cy="83" r="80" fill="green" />
    <circle cx="84" cy="84" r="80" fill="green" />
    <circle cx="85" cy="85" r="80" fill="green" />
    <circle cx="86" cy="86" r="80" fill="green" />
    <circle cx="87" cy="87" r="80" fill="green" />
    <circle cx="88" cy="88" r="80" fill="green" />
    <circle cx="89" cy="89" r="80" fill="green" />
    <circle cx="90" cy="90" r="80" fill="green" />
    <circle cx="91" cy="91" r="80" fill="green" />
    <circle cx="92" cy="92" r="80" fill="green" />
    <circle cx="93" cy="93" r="80" fill="green" />
    <circle cx="94" cy="94" r="80" fill="green" />
    <circle cx="95" cy="95" r="80" fill="green" />
    <circle cx="96" cy="96" r="80" fill="green" />
    <circle cx="97" cy="97" r="80" fill="green" />
    <circle cx="98" cy="98" r="80" fill="green" />
    <circle cx="99" cy="99" r="80" fill="green" />
</svg>